<?xml version="1.0" encoding="utf-8"?>
<!-- Generator: Adobe Illustrator 17.0.0, SVG Export Plug-In . SVG Version: 6.00 Build 0)  -->
<!DOCTYPE svg PUBLIC "-//W3C//DTD SVG 1.1//EN" "http://www.w3.org/Graphics/SVG/1.1/DTD/svg11.dtd">
<svg version="1.1" xmlns="http://www.w3.org/2000/svg" xmlns:xlink="http://www.w3.org/1999/xlink" x="0px" y="0px" width="200px"
	 height="72.775px" viewBox="0 0 4144 1508" enable-background="new 0 0 4144 1508" xml:space="preserve">
<g id="ellipse">
	<g>
		<radialGradient id="SVGID_1_" cx="972" cy="508" r="1142.0472" gradientUnits="userSpaceOnUse">
			<stop  offset="0" style="stop-color:#0590BE"/>
			<stop  offset="0.0854" style="stop-color:#068EBB"/>
			<stop  offset="0.17" style="stop-color:#0786B1"/>
			<stop  offset="0.2541" style="stop-color:#057AA1"/>
			<stop  offset="0.3034" style="stop-color:#037194"/>
			<stop  offset="1" style="stop-color:#012733"/>
		</radialGradient>
		<path fill="url(#SVGID_1_)" d="M492.5,85.68c5.086-1.994,9.722-3.858,14.391-5.635c47.12-17.951,95.614-30.738,145.434-38.452
			c23.216-3.595,46.565-5.971,70.032-7.323c25.485-1.469,50.97-1.68,76.446-0.388c103.117,5.228,200.836,30.899,292.849,77.89
			c11.597,5.924,22.91,12.41,34.325,18.684c25.811,14.187,45.956,34.405,62.115,58.769c12.658,19.087,22.124,39.749,29.5,61.386
			c9.645,28.299,15.512,57.441,19.32,87.045c4.783,37.164,5.777,74.502,5.28,111.909c-0.303,22.771-0.445,45.551-1.253,68.307
			c-0.915,25.756-2.302,51.502-3.851,77.231c-1.273,21.152-2.749,42.305-4.741,63.4c-2.687,28.501-5.489,57.009-9.091,85.405
			c-4.159,32.799-8.885,65.533-14.013,98.195c-6.083,38.742-13.516,77.249-21.871,115.576
			c-7.868,36.083-16.218,72.043-26.084,107.641c-8.76,31.605-18.485,62.893-31.054,93.23c-6.309,15.229-13.339,30.107-22.191,44.06
			c-4.925,7.763-10.371,15.119-17.053,21.485c-4.492,4.278-9.412,7.925-15.206,10.292c-7.376,3.013-14.883,3.483-22.094-0.022
			c-5.24-2.548-10.331-5.586-15.022-9.039c-8.571-6.309-15.773-14.135-22.676-22.199c-18.689-21.828-34.472-45.723-49.476-70.146
			c-28.282-46.036-53.352-93.829-77.579-142.083c-47.684-94.97-91.172-191.88-133.086-289.498
			c-34.678-80.766-68.665-161.828-103.112-242.694c-36.184-84.945-72.478-169.845-108.876-254.7
			c-16.422-38.285-33.206-76.411-49.824-114.611C493.594,88.357,493.176,87.31,492.5,85.68z"/>
		<radialGradient id="SVGID_2_" cx="972" cy="508" r="1142.0472" gradientUnits="userSpaceOnUse">
			<stop  offset="0" style="stop-color:#0590BE"/>
			<stop  offset="0.0854" style="stop-color:#068EBB"/>
			<stop  offset="0.17" style="stop-color:#0786B1"/>
			<stop  offset="0.2541" style="stop-color:#057AA1"/>
			<stop  offset="0.3034" style="stop-color:#037194"/>
			<stop  offset="1" style="stop-color:#012733"/>
		</radialGradient>
		<path fill="url(#SVGID_2_)" d="M981.204,1444.231c-7.082,2.105-13.207,3.992-19.37,5.747
			c-34.472,9.827-69.488,16.971-105.038,21.59c-39.145,5.089-78.454,7.06-117.87,5.573
			c-140.35-5.297-268.524-47.605-384.734-126.588c-25.791-17.53-41.124-41.621-49.658-70.85
			c-4.793-16.419-7.433-33.214-8.686-50.252c-1.367-18.609-1.402-37.231,0.271-55.793c1.308-14.53,3.06-29.045,5.31-43.458
			c4.169-26.723,8.532-53.424,13.394-80.03c5.531-30.266,11.656-60.422,17.6-90.61c4.922-24.993,9.961-49.961,14.94-74.942
			c6.07-30.457,12.139-60.911,18.199-91.371c8.184-41.124,16.362-82.248,24.533-123.372c7.89-39.722,15.755-79.449,23.653-119.168
			c7.06-35.508,14.147-71.012,21.227-106.517c0.159-0.8,0.363-1.593,1.303-2.618c0.706,1.457,1.434,2.901,2.118,4.368
			c27.377,58.943,53.277,118.539,79.001,178.217c30.027,69.664,59.877,139.408,90.401,208.856
			c40.726,92.659,83.133,184.549,128.995,274.799c16.404,32.284,33.331,64.32,50.759,96.062
			c22.127,40.299,45.601,79.821,72.118,117.443c20.332,28.844,42.126,56.482,67.529,81.104
			c15.681,15.199,32.488,28.965,51.408,40.015C979.205,1442.791,979.757,1443.229,981.204,1444.231z"/>
		<radialGradient id="SVGID_3_" cx="972" cy="508" r="1142.0472" gradientUnits="userSpaceOnUse">
			<stop  offset="0" style="stop-color:#0590BE"/>
			<stop  offset="0.0854" style="stop-color:#068EBB"/>
			<stop  offset="0.17" style="stop-color:#0786B1"/>
			<stop  offset="0.2541" style="stop-color:#057AA1"/>
			<stop  offset="0.3034" style="stop-color:#037194"/>
			<stop  offset="1" style="stop-color:#012733"/>
		</radialGradient>
		<path fill="url(#SVGID_3_)" d="M149.459,1135.189c-1.109-1.651-1.939-2.784-2.667-3.982
			c-42.849-70.35-72.906-145.784-89.897-226.404c-6.237-29.594-10.498-59.465-13.038-89.608c-2.374-28.16-3.217-56.367-2.073-84.572
			c6.801-167.429,64.153-315.314,171.946-443.657c12.196-14.52,25.689-27.727,39.359-40.776c8.76-8.362,18.562-15.308,30.077-19.499
			c16.208-5.899,31.528-4.097,45.872,5.501c8.33,5.573,14.958,12.83,20.623,21.053c1.474,2.14,1.432,4.189,0.885,6.503
			c-4.393,18.669-8.755,37.348-13.115,56.024c-20.469,87.672-40.94,175.341-61.399,263.016
			c-15.905,68.158-32.026,136.268-47.632,204.496c-21.51,94.036-42.682,188.151-63.875,282.261
			c-4.937,21.92-9.359,43.958-14.033,65.938C150.267,1132.552,149.912,1133.586,149.459,1135.189z"/>
		<radialGradient id="SVGID_4_" cx="972" cy="508" r="1142.0472" gradientUnits="userSpaceOnUse">
			<stop  offset="0" style="stop-color:#0590BE"/>
			<stop  offset="0.0854" style="stop-color:#068EBB"/>
			<stop  offset="0.17" style="stop-color:#0786B1"/>
			<stop  offset="0.2541" style="stop-color:#057AA1"/>
			<stop  offset="0.3034" style="stop-color:#037194"/>
			<stop  offset="1" style="stop-color:#012733"/>
		</radialGradient>
		<path fill="url(#SVGID_4_)" d="M1174.127,1349.591c8.775-19.499,17.754-38.377,25.836-57.633
			c17.245-41.087,31.324-83.302,43.968-126.011c14.709-49.69,27.521-99.875,39.6-150.259
			c16.287-67.927,30.591-136.278,43.448-204.926c9.168-48.949,17.722-98.016,26.146-147.099
			c5.715-33.286,10.926-66.661,15.999-100.052c4.149-27.307,7.925-54.674,11.562-82.056c3.259-24.546,6.108-49.146,9.123-73.721
			c0.365-2.973,0.646-5.956,0.982-9.091c7.502,6.135,42.081,81.402,55.828,121.236c14.61,42.33,25.142,85.661,31.591,129.967
			c6.448,44.321,8.85,88.87,7.087,133.641c-1.76,44.751-7.507,88.977-17.443,132.641c-9.901,43.518-23.755,85.753-41.554,126.688
			c-17.863,41.079-39.364,80.155-64.503,117.226c-25.15,37.084-53.491,71.544-85.027,103.375
			C1245.261,1295.322,1211.127,1323.984,1174.127,1349.591z"/>
	</g>
</g>
<g id="Calque_5">
</g>
<g id="ovelis">
	<g>
		<path fill="#014257" stroke="#014257" stroke-width="20" stroke-miterlimit="10" d="M1832.952,1156.161
			c-71.947,0-130.556-28.789-175.829-86.386c-45.28-57.588-67.913-131.486-67.913-221.705c0-95.844,24.188-173.678,72.564-233.484
			c48.376-59.806,111.172-89.708,188.389-89.708c69.773,0,127.22,28.393,172.34,85.178s67.681,128.673,67.681,215.663
			c0,35.038-4.267,69.68-12.792,103.905c-8.533,34.235-20.082,63.431-34.654,87.595c-27.604,46.317-58.842,81.053-93.729,104.207
			C1914.121,1144.579,1875.434,1156.161,1832.952,1156.161z M1838.534,1069.171c50.237,0,91.403-21.842,123.499-65.545
			c32.096-43.693,48.144-99.771,48.144-168.241c0-66.848-15.743-121.32-47.213-163.409c-31.478-42.079-72.332-63.128-122.569-63.128
			c-51.167,0-92.493,21.851-123.964,65.544c-31.478,43.703-47.213,101.592-47.213,173.678c0,64.035,15.968,116.894,47.911,158.576
			C1749.063,1048.329,1789.532,1069.171,1838.534,1069.171z"/>
		<path fill="#014257" stroke="#014257" stroke-width="20" stroke-miterlimit="10" d="M2177.729,620.325
			c12.711-28.185,24.42-48.828,35.119-61.92c10.699-13.083,21.004-19.633,30.933-19.633c14.26,0,27.212,12.384,38.841,37.152
			s28.76,82.459,51.399,173.074c3.409,13.291,8.213,32.424,14.42,57.39c36.587,149.816,59.075,224.725,67.448,224.725
			c5.582,0,14.725-10.873,27.444-32.621c12.712-21.747,26.514-50.536,41.399-86.386c26.049-62.015,45.12-116.894,57.214-164.617
			c12.094-47.724,18.141-91.313,18.141-130.788c0-12.479-0.857-24.56-2.558-36.246c-1.708-11.676-4.114-23.154-7.21-34.434
			c6.2-2.417,12.399-4.229,18.606-5.437c6.199-1.208,12.711-1.813,19.536-1.813c21.085,0,36.203,4.937,45.353,14.8
			c9.143,9.874,13.722,25.882,13.722,48.026c0,40.276-10.161,92.531-30.468,156.764c-20.314,64.242-49.539,135.62-87.682,214.152
			c-32.874,68.065-59.002,114.383-78.379,138.943c-19.384,24.569-37.757,36.85-55.121,36.85c-27.91,0-56.131-58.191-84.659-174.584
			c-9.928-39.465-17.836-70.68-23.723-93.636c-18.918-73.294-37.14-130.58-54.656-171.866
			C2215.327,666.945,2196.953,637.646,2177.729,620.325z"/>
		<path fill="#014257" stroke="#014257" stroke-width="20" stroke-miterlimit="10" d="M3114.65,1013.594
			c6.817,10.874,11.861,21.049,15.117,30.507c3.256,9.468,4.884,18.633,4.884,27.486c0,21.748-12.486,39.568-37.445,53.463
			c-24.966,13.895-57.607,20.842-97.916,20.842c-74.12,0-132.185-26.278-174.201-78.835
			c-42.024-52.557-63.028-125.143-63.028-217.777c0-93.428,21.165-169.847,63.494-229.256c42.329-59.4,96.672-89.104,163.037-89.104
			c51.167,0,93.184,18.935,126.058,56.785c32.866,37.86,49.306,86.188,49.306,144.984c0,46.317-13.649,79.344-40.934,99.072
			c-27.292,19.737-73.655,29.601-139.082,29.601c-24.501,0-48.921-1.104-73.262-3.322c-24.348-2.209-48.456-5.531-72.332-9.968
			v8.458c0,62.826,14.26,112.569,42.794,149.212c28.527,36.652,67.288,54.974,116.289,54.974c22.945,0,44.19-3.927,63.727-11.78
			S3098.522,1029.301,3114.65,1013.594z M2843.929,776.183c20.467,4.437,43.027,7.759,67.68,9.968
			c24.653,2.219,51.24,3.322,79.774,3.322c38.761,0,64.657-4.625,77.681-13.894c13.024-9.26,19.537-25.977,19.537-50.141
			c0-36.642-9.769-65.639-29.305-86.99c-19.537-21.342-46.21-32.017-80.007-32.017c-35.977,0-65.899,14.904-89.775,44.703
			C2865.632,680.943,2850.441,722.626,2843.929,776.183z"/>
		<path fill="#014257" stroke="#014257" stroke-width="20" stroke-miterlimit="10" d="M3420.354,1113.874
			c-13.024,9.27-25.198,16.112-36.515,20.539c-11.324,4.437-21.942,6.646-31.863,6.646c-14.885,0-25.118-5.531-30.7-16.612
			c-5.582-11.072-8.373-31.914-8.373-62.524c0-38.257,1.701-111.051,5.117-218.382c3.409-107.322,5.117-195.823,5.117-265.501
			c0-86.179-2.021-151.525-6.047-196.03c-4.034-44.496-10.858-78.429-20.467-101.791c12.399-9.26,24.341-16.103,35.817-20.54
			c11.469-4.427,22.328-6.645,32.561-6.645c15.503,0,26.049,5.041,31.631,15.103c5.582,10.071,8.373,30.611,8.373,61.618
			c0,25.778-1.708,93.437-5.117,202.977c-3.416,109.55-5.117,205.998-5.117,289.364c0,89.406,1.933,154.649,5.814,195.728
			C3404.459,1058.901,3411.051,1090.918,3420.354,1113.874z"/>
		<path fill="#014257" stroke="#014257" stroke-width="20" stroke-miterlimit="10" d="M3710.708,1113.874
			c-13.024,9.27-25.431,16.112-37.212,20.539c-11.789,4.437-23.105,6.646-33.957,6.646c-15.197,0-25.511-5.333-30.933-16.009
			c-5.429-10.666-8.14-32.111-8.14-64.336c0-18.52,1.395-60.005,4.186-124.444c2.791-64.432,4.187-119.811,4.187-166.128
			c0-50.338-1.861-91.219-5.582-122.632s-9.768-58.191-18.141-80.345c11.469-8.854,23.258-15.603,35.352-20.237
			c12.094-4.625,24.028-6.947,35.817-6.947c14.26,0,24.028,4.53,29.305,13.592c5.27,9.062,7.907,25.882,7.907,50.442
			c0,6.447-1.396,41.683-4.187,105.717c-2.791,64.035-4.186,124.85-4.186,182.438c0,53.973,2.093,98.676,6.28,134.11
			C3695.591,1061.724,3702.023,1090.918,3710.708,1113.874z M3706.987,355.73c0,22.956-6.206,42.089-18.606,57.39
			c-12.406,15.31-28.069,22.956-46.98,22.956c-16.44,0-29.465-6.041-39.073-18.123c-9.616-12.082-14.42-28.393-14.42-48.932
			c0-22.55,6.2-41.777,18.606-57.692c12.399-15.905,27.444-23.862,45.12-23.862c16.121,0,29.377,6.447,39.771,19.331
			C3701.791,319.692,3706.987,336.002,3706.987,355.73z"/>
		<path fill="#014257" stroke="#014257" stroke-width="20" stroke-miterlimit="10" d="M3879.191,1044.402
			c11.163,7.655,21.862,13.291,32.096,16.915c10.233,3.625,20.154,5.438,29.77,5.438c22.328,0,40.309-6.947,53.958-20.842
			c13.643-13.895,20.467-32.111,20.467-54.671c0-17.717-3.721-34.227-11.163-49.536c-7.442-15.301-21.397-33.83-41.864-55.577
			c-3.416-3.219-8.067-8.052-13.955-14.498c-52.409-56.38-78.611-106.321-78.611-149.817c0-17.717,2.632-35.434,7.908-53.161
			c5.27-17.717,13.024-34.632,23.258-50.744c19.536-30.205,42.401-53.255,68.61-69.169c26.201-15.905,54.496-23.862,84.891-23.862
			c14.886,0,26.202,3.729,33.957,11.176c7.747,7.457,11.629,18.227,11.629,32.319c0,6.853-1.396,15.008-4.187,24.466
			c-2.791,9.467-7.442,21.445-13.955,35.944c-8.373-4.427-16.28-7.75-23.723-9.968c-7.442-2.208-14.732-3.322-21.862-3.322
			c-25.743,0-46.596,8.155-62.563,24.466c-15.976,16.311-23.956,37.36-23.956,63.128c0,28.194,21.55,66.253,64.657,114.175
			c10.851,12.082,19.071,21.549,24.653,28.393c18.294,20.945,31.783,41.589,40.469,61.92c8.678,20.342,13.024,41.183,13.024,62.524
			c0,50.348-17.139,93.739-51.4,130.184c-34.269,36.453-75.9,54.671-124.895,54.671c-17.058,0-30.162-4.437-39.306-13.29
			c-9.15-8.854-13.722-21.342-13.722-37.454c0-7.646,1.235-16.104,3.721-25.373
			C3869.575,1069.577,3873.609,1058.099,3879.191,1044.402z"/>
	</g>
</g>
<g id="digital_innovation">
	<g>
		<path fill="#014257" d="M1690.131,1391.047c0,28.047-6.129,49.487-18.386,64.323c-12.257,14.836-29.911,22.254-52.962,22.254
			h-37.412v-169.9h41.345c21.282,0,37.838,7.283,49.669,21.848C1684.215,1344.138,1690.131,1364.629,1690.131,1391.047z
			 M1667.08,1391.977c0-40.674-14.971-61.011-44.913-61.011h-18.935v123.3h15.55
			C1650.98,1454.266,1667.08,1433.504,1667.08,1391.977z"/>
		<path fill="#014257" d="M1749.389,1477.624v-169.9h21.862v169.9H1749.389z"/>
		<path fill="#014257" d="M1891.794,1385.469h49.212v85.299c-8.05,3.332-15.779,5.694-23.188,7.089
			c-7.41,1.395-15.413,2.092-24.012,2.092c-20.247,0-35.857-7.611-46.833-22.836c-10.977-15.223-16.465-36.702-16.465-64.438
			c0-27.348,6.188-48.751,18.568-64.206c12.379-15.457,29.423-23.185,51.133-23.185c13.963,0,27.197,3.41,39.699,10.227
			l-7.684,23.126c-10.855-6.352-21.71-9.529-32.564-9.529c-14.27,0-25.552,5.694-33.845,17.083
			c-8.294,11.389-12.44,26.961-12.44,46.717c0,20.764,3.735,36.548,11.206,47.356c7.469,10.807,18.217,16.211,32.244,16.211
			c7.073,0,14.636-1.122,22.685-3.37v-43.812h-27.716V1385.469z"/>
		<path fill="#014257" d="M2003.649,1477.624v-169.9h21.862v169.9H2003.649z"/>
		<path fill="#014257" d="M2137.548,1477.624h-21.862v-146.077h-39.333v-23.823h100.528v23.823h-39.333V1477.624z"/>
		<path fill="#014257" d="M2310.871,1477.624l-13.355-47.182h-51.133l-13.081,47.182h-23.051l50.035-170.598h23.783l50.035,170.598
			H2310.871z M2291.753,1406.503l-12.532-46.252c-0.915-3.098-2.181-7.979-3.796-14.643c-1.617-6.662-2.73-11.543-3.339-14.643
			c-1.646,9.529-4.056,19.95-7.226,31.261l-12.074,44.276H2291.753z"/>
		<path fill="#014257" d="M2382.295,1477.624v-169.9h21.862v146.077h56.621v23.823H2382.295z"/>
		<path fill="#014257" d="M2672.762,1477.624v-169.9h21.862v169.9H2672.762z"/>
		<path fill="#014257" d="M2871.88,1477.624h-26.801l-65.768-135.386h-0.732l0.458,7.554c0.853,14.41,1.28,27.582,1.28,39.512v88.32
			h-19.849v-169.9h26.527l65.585,134.688h0.549c-0.123-1.781-0.366-8.27-0.732-19.466c-0.366-11.194-0.549-19.93-0.549-26.205
			v-89.018h20.032V1477.624z"/>
		<path fill="#014257" d="M3049.137,1477.624h-26.801l-65.768-135.386h-0.732l0.458,7.554c0.853,14.41,1.28,27.582,1.28,39.512
			v88.32h-19.849v-169.9h26.527l65.585,134.688h0.549c-0.123-1.781-0.366-8.27-0.732-19.466c-0.366-11.194-0.549-19.93-0.549-26.205
			v-89.018h20.032V1477.624z"/>
		<path fill="#014257" d="M3233.711,1392.441c0,27.658-5.442,49.157-16.328,64.497s-26.298,23.01-46.239,23.01
			c-20.185,0-35.69-7.611-46.514-22.836c-10.825-15.223-16.236-36.856-16.236-64.903c0-28.045,5.442-49.582,16.328-64.613
			c10.885-15.029,26.419-22.545,46.605-22.545c19.879,0,35.247,7.632,46.102,22.894
			C3228.283,1343.208,3233.711,1364.707,3233.711,1392.441z M3131.629,1392.441c0,20.918,3.323,36.78,9.97,47.589
			c6.646,10.807,16.495,16.211,29.545,16.211c12.989,0,22.791-5.346,29.408-16.037c6.616-10.691,9.925-26.612,9.925-47.763
			c0-20.84-3.279-36.645-9.833-47.414c-6.556-10.768-16.328-16.153-29.317-16.153c-13.112,0-23.005,5.386-29.683,16.153
			C3134.967,1355.797,3131.629,1371.602,3131.629,1392.441z"/>
		<path fill="#014257" d="M3369.166,1307.724h22.685l-46.834,169.9h-23.051l-46.651-169.9h22.502l27.899,105.636
			c1.464,5.037,3.019,11.524,4.666,19.466s2.712,13.849,3.201,17.722c0.792-5.887,2.013-12.705,3.659-20.453
			c1.646-7.746,2.987-13.48,4.024-17.199L3369.166,1307.724z"/>
		<path fill="#014257" d="M3523.005,1477.624l-13.355-47.182h-51.133l-13.081,47.182h-23.051l50.035-170.598h23.783l50.035,170.598
			H3523.005z M3503.888,1406.503l-12.532-46.252c-0.915-3.098-2.181-7.979-3.796-14.643c-1.617-6.662-2.73-11.543-3.339-14.643
			c-1.646,9.529-4.056,19.95-7.226,31.261l-12.074,44.276H3503.888z"/>
		<path fill="#014257" d="M3640.623,1477.624h-21.862v-146.077h-39.333v-23.823h100.528v23.823h-39.333V1477.624z"/>
		<path fill="#014257" d="M3730.981,1477.624v-169.9h21.862v169.9H3730.981z"/>
		<path fill="#014257" d="M3937.417,1392.441c0,27.658-5.442,49.157-16.328,64.497c-10.885,15.34-26.298,23.01-46.238,23.01
			c-20.186,0-35.69-7.611-46.514-22.836c-10.825-15.223-16.236-36.856-16.236-64.903c0-28.045,5.442-49.582,16.327-64.613
			c10.886-15.029,26.42-22.545,46.605-22.545c19.879,0,35.247,7.632,46.102,22.894
			C3931.989,1343.208,3937.417,1364.707,3937.417,1392.441z M3835.334,1392.441c0,20.918,3.323,36.78,9.971,47.589
			c6.646,10.807,16.495,16.211,29.546,16.211c12.988,0,22.79-5.346,29.408-16.037c6.615-10.691,9.925-26.612,9.925-47.763
			c0-20.84-3.279-36.645-9.834-47.414c-6.556-10.768-16.327-16.153-29.316-16.153c-13.112,0-23.005,5.386-29.683,16.153
			C3838.673,1355.797,3835.334,1371.602,3835.334,1392.441z"/>
		<path fill="#014257" d="M4108.089,1477.624h-26.802l-65.769-135.386h-0.731l0.457,7.554c0.854,14.41,1.281,27.582,1.281,39.512
			v88.32h-19.85v-169.9h26.526l65.586,134.688h0.549c-0.123-1.781-0.366-8.27-0.731-19.466c-0.366-11.194-0.549-19.93-0.549-26.205
			v-89.018h20.032V1477.624z"/>
	</g>
</g>
<g id="point_i">
	<circle fill="#C32026" cx="3631" cy="368" r="98"/>
</g>
</svg>
